<?xml version="1.0" encoding="utf-8" standalone="no"?>
<!DOCTYPE svg PUBLIC "-//W3C//DTD SVG 1.1//EN"
  "http://www.w3.org/Graphics/SVG/1.1/DTD/svg11.dtd">
<svg xmlns:xlink="http://www.w3.org/1999/xlink" width="432pt" height="288pt" viewBox="0 0 432 288" xmlns="http://www.w3.org/2000/svg" version="1.1">
 <metadata>
  <rdf:RDF xmlns:dc="http://purl.org/dc/elements/1.1/" xmlns:cc="http://creativecommons.org/ns#" xmlns:rdf="http://www.w3.org/1999/02/22-rdf-syntax-ns#">
   <cc:Work>
    <dc:type rdf:resource="http://purl.org/dc/dcmitype/StillImage"/>
    <dc:date>2023-02-20T19:43:28.766154</dc:date>
    <dc:format>image/svg+xml</dc:format>
    <dc:creator>
     <cc:Agent>
      <dc:title>Matplotlib v3.5.1, https://matplotlib.org/</dc:title>
     </cc:Agent>
    </dc:creator>
   </cc:Work>
  </rdf:RDF>
 </metadata>
 <defs>
  <style type="text/css">*{stroke-linejoin: round; stroke-linecap: butt}</style>
 </defs>
 <g id="figure_1">
  <g id="patch_1">
   <path d="M 0 288 
L 432 288 
L 432 0 
L 0 0 
L 0 288 
z
" style="fill: none"/>
  </g>
  <g id="axes_1">
   <g id="patch_2">
    <path d="M 54 252 
L 388.8 252 
L 388.8 34.56 
L 54 34.56 
z
" style="fill: #ffffff"/>
   </g>
   <g id="matplotlib.axis_1">
    <g id="xtick_1">
     <g id="line2d_1">
      <defs>
       <path id="m5e15042920" d="M 0 0 
L 0 3.5 
" style="stroke: #000000; stroke-width: 0.8"/>
      </defs>
      <g>
       <use xlink:href="#m5e15042920" x="68.913208" y="252" style="stroke: #000000; stroke-width: 0.8"/>
      </g>
     </g>
     <g id="text_1">
      <!-- 0 -->
      <g transform="translate(65.731958 266.598437)scale(0.1 -0.1)">
       <defs>
        <path id="DejaVuSans-30" d="M 2034 4250 
Q 1547 4250 1301 3770 
Q 1056 3291 1056 2328 
Q 1056 1369 1301 889 
Q 1547 409 2034 409 
Q 2525 409 2770 889 
Q 3016 1369 3016 2328 
Q 3016 3291 2770 3770 
Q 2525 4250 2034 4250 
z
M 2034 4750 
Q 2819 4750 3233 4129 
Q 3647 3509 3647 2328 
Q 3647 1150 3233 529 
Q 2819 -91 2034 -91 
Q 1250 -91 836 529 
Q 422 1150 422 2328 
Q 422 3509 836 4129 
Q 1250 4750 2034 4750 
z
" transform="scale(0.015625)"/>
       </defs>
       <use xlink:href="#DejaVuSans-30"/>
      </g>
     </g>
    </g>
    <g id="xtick_2">
     <g id="line2d_2">
      <g>
       <use xlink:href="#m5e15042920" x="129.907925" y="252" style="stroke: #000000; stroke-width: 0.8"/>
      </g>
     </g>
     <g id="text_2">
      <!-- 200 -->
      <g transform="translate(120.364175 266.598437)scale(0.1 -0.1)">
       <defs>
        <path id="DejaVuSans-32" d="M 1228 531 
L 3431 531 
L 3431 0 
L 469 0 
L 469 531 
Q 828 903 1448 1529 
Q 2069 2156 2228 2338 
Q 2531 2678 2651 2914 
Q 2772 3150 2772 3378 
Q 2772 3750 2511 3984 
Q 2250 4219 1831 4219 
Q 1534 4219 1204 4116 
Q 875 4013 500 3803 
L 500 4441 
Q 881 4594 1212 4672 
Q 1544 4750 1819 4750 
Q 2544 4750 2975 4387 
Q 3406 4025 3406 3419 
Q 3406 3131 3298 2873 
Q 3191 2616 2906 2266 
Q 2828 2175 2409 1742 
Q 1991 1309 1228 531 
z
" transform="scale(0.015625)"/>
       </defs>
       <use xlink:href="#DejaVuSans-32"/>
       <use xlink:href="#DejaVuSans-30" x="63.623047"/>
       <use xlink:href="#DejaVuSans-30" x="127.246094"/>
      </g>
     </g>
    </g>
    <g id="xtick_3">
     <g id="line2d_3">
      <g>
       <use xlink:href="#m5e15042920" x="190.902642" y="252" style="stroke: #000000; stroke-width: 0.8"/>
      </g>
     </g>
     <g id="text_3">
      <!-- 400 -->
      <g transform="translate(181.358892 266.598437)scale(0.1 -0.1)">
       <defs>
        <path id="DejaVuSans-34" d="M 2419 4116 
L 825 1625 
L 2419 1625 
L 2419 4116 
z
M 2253 4666 
L 3047 4666 
L 3047 1625 
L 3713 1625 
L 3713 1100 
L 3047 1100 
L 3047 0 
L 2419 0 
L 2419 1100 
L 313 1100 
L 313 1709 
L 2253 4666 
z
" transform="scale(0.015625)"/>
       </defs>
       <use xlink:href="#DejaVuSans-34"/>
       <use xlink:href="#DejaVuSans-30" x="63.623047"/>
       <use xlink:href="#DejaVuSans-30" x="127.246094"/>
      </g>
     </g>
    </g>
    <g id="xtick_4">
     <g id="line2d_4">
      <g>
       <use xlink:href="#m5e15042920" x="251.897358" y="252" style="stroke: #000000; stroke-width: 0.8"/>
      </g>
     </g>
     <g id="text_4">
      <!-- 600 -->
      <g transform="translate(242.353608 266.598437)scale(0.1 -0.1)">
       <defs>
        <path id="DejaVuSans-36" d="M 2113 2584 
Q 1688 2584 1439 2293 
Q 1191 2003 1191 1497 
Q 1191 994 1439 701 
Q 1688 409 2113 409 
Q 2538 409 2786 701 
Q 3034 994 3034 1497 
Q 3034 2003 2786 2293 
Q 2538 2584 2113 2584 
z
M 3366 4563 
L 3366 3988 
Q 3128 4100 2886 4159 
Q 2644 4219 2406 4219 
Q 1781 4219 1451 3797 
Q 1122 3375 1075 2522 
Q 1259 2794 1537 2939 
Q 1816 3084 2150 3084 
Q 2853 3084 3261 2657 
Q 3669 2231 3669 1497 
Q 3669 778 3244 343 
Q 2819 -91 2113 -91 
Q 1303 -91 875 529 
Q 447 1150 447 2328 
Q 447 3434 972 4092 
Q 1497 4750 2381 4750 
Q 2619 4750 2861 4703 
Q 3103 4656 3366 4563 
z
" transform="scale(0.015625)"/>
       </defs>
       <use xlink:href="#DejaVuSans-36"/>
       <use xlink:href="#DejaVuSans-30" x="63.623047"/>
       <use xlink:href="#DejaVuSans-30" x="127.246094"/>
      </g>
     </g>
    </g>
    <g id="xtick_5">
     <g id="line2d_5">
      <g>
       <use xlink:href="#m5e15042920" x="312.892075" y="252" style="stroke: #000000; stroke-width: 0.8"/>
      </g>
     </g>
     <g id="text_5">
      <!-- 800 -->
      <g transform="translate(303.348325 266.598437)scale(0.1 -0.1)">
       <defs>
        <path id="DejaVuSans-38" d="M 2034 2216 
Q 1584 2216 1326 1975 
Q 1069 1734 1069 1313 
Q 1069 891 1326 650 
Q 1584 409 2034 409 
Q 2484 409 2743 651 
Q 3003 894 3003 1313 
Q 3003 1734 2745 1975 
Q 2488 2216 2034 2216 
z
M 1403 2484 
Q 997 2584 770 2862 
Q 544 3141 544 3541 
Q 544 4100 942 4425 
Q 1341 4750 2034 4750 
Q 2731 4750 3128 4425 
Q 3525 4100 3525 3541 
Q 3525 3141 3298 2862 
Q 3072 2584 2669 2484 
Q 3125 2378 3379 2068 
Q 3634 1759 3634 1313 
Q 3634 634 3220 271 
Q 2806 -91 2034 -91 
Q 1263 -91 848 271 
Q 434 634 434 1313 
Q 434 1759 690 2068 
Q 947 2378 1403 2484 
z
M 1172 3481 
Q 1172 3119 1398 2916 
Q 1625 2713 2034 2713 
Q 2441 2713 2670 2916 
Q 2900 3119 2900 3481 
Q 2900 3844 2670 4047 
Q 2441 4250 2034 4250 
Q 1625 4250 1398 4047 
Q 1172 3844 1172 3481 
z
" transform="scale(0.015625)"/>
       </defs>
       <use xlink:href="#DejaVuSans-38"/>
       <use xlink:href="#DejaVuSans-30" x="63.623047"/>
       <use xlink:href="#DejaVuSans-30" x="127.246094"/>
      </g>
     </g>
    </g>
    <g id="xtick_6">
     <g id="line2d_6">
      <g>
       <use xlink:href="#m5e15042920" x="373.886792" y="252" style="stroke: #000000; stroke-width: 0.8"/>
      </g>
     </g>
     <g id="text_6">
      <!-- 1000 -->
      <g transform="translate(361.161792 266.598437)scale(0.1 -0.1)">
       <defs>
        <path id="DejaVuSans-31" d="M 794 531 
L 1825 531 
L 1825 4091 
L 703 3866 
L 703 4441 
L 1819 4666 
L 2450 4666 
L 2450 531 
L 3481 531 
L 3481 0 
L 794 0 
L 794 531 
z
" transform="scale(0.015625)"/>
       </defs>
       <use xlink:href="#DejaVuSans-31"/>
       <use xlink:href="#DejaVuSans-30" x="63.623047"/>
       <use xlink:href="#DejaVuSans-30" x="127.246094"/>
       <use xlink:href="#DejaVuSans-30" x="190.869141"/>
      </g>
     </g>
    </g>
    <g id="text_7">
     <!-- Number of iterations -->
     <g transform="translate(169.589063 280.276563)scale(0.1 -0.1)">
      <defs>
       <path id="DejaVuSans-4e" d="M 628 4666 
L 1478 4666 
L 3547 763 
L 3547 4666 
L 4159 4666 
L 4159 0 
L 3309 0 
L 1241 3903 
L 1241 0 
L 628 0 
L 628 4666 
z
" transform="scale(0.015625)"/>
       <path id="DejaVuSans-75" d="M 544 1381 
L 544 3500 
L 1119 3500 
L 1119 1403 
Q 1119 906 1312 657 
Q 1506 409 1894 409 
Q 2359 409 2629 706 
Q 2900 1003 2900 1516 
L 2900 3500 
L 3475 3500 
L 3475 0 
L 2900 0 
L 2900 538 
Q 2691 219 2414 64 
Q 2138 -91 1772 -91 
Q 1169 -91 856 284 
Q 544 659 544 1381 
z
M 1991 3584 
L 1991 3584 
z
" transform="scale(0.015625)"/>
       <path id="DejaVuSans-6d" d="M 3328 2828 
Q 3544 3216 3844 3400 
Q 4144 3584 4550 3584 
Q 5097 3584 5394 3201 
Q 5691 2819 5691 2113 
L 5691 0 
L 5113 0 
L 5113 2094 
Q 5113 2597 4934 2840 
Q 4756 3084 4391 3084 
Q 3944 3084 3684 2787 
Q 3425 2491 3425 1978 
L 3425 0 
L 2847 0 
L 2847 2094 
Q 2847 2600 2669 2842 
Q 2491 3084 2119 3084 
Q 1678 3084 1418 2786 
Q 1159 2488 1159 1978 
L 1159 0 
L 581 0 
L 581 3500 
L 1159 3500 
L 1159 2956 
Q 1356 3278 1631 3431 
Q 1906 3584 2284 3584 
Q 2666 3584 2933 3390 
Q 3200 3197 3328 2828 
z
" transform="scale(0.015625)"/>
       <path id="DejaVuSans-62" d="M 3116 1747 
Q 3116 2381 2855 2742 
Q 2594 3103 2138 3103 
Q 1681 3103 1420 2742 
Q 1159 2381 1159 1747 
Q 1159 1113 1420 752 
Q 1681 391 2138 391 
Q 2594 391 2855 752 
Q 3116 1113 3116 1747 
z
M 1159 2969 
Q 1341 3281 1617 3432 
Q 1894 3584 2278 3584 
Q 2916 3584 3314 3078 
Q 3713 2572 3713 1747 
Q 3713 922 3314 415 
Q 2916 -91 2278 -91 
Q 1894 -91 1617 61 
Q 1341 213 1159 525 
L 1159 0 
L 581 0 
L 581 4863 
L 1159 4863 
L 1159 2969 
z
" transform="scale(0.015625)"/>
       <path id="DejaVuSans-65" d="M 3597 1894 
L 3597 1613 
L 953 1613 
Q 991 1019 1311 708 
Q 1631 397 2203 397 
Q 2534 397 2845 478 
Q 3156 559 3463 722 
L 3463 178 
Q 3153 47 2828 -22 
Q 2503 -91 2169 -91 
Q 1331 -91 842 396 
Q 353 884 353 1716 
Q 353 2575 817 3079 
Q 1281 3584 2069 3584 
Q 2775 3584 3186 3129 
Q 3597 2675 3597 1894 
z
M 3022 2063 
Q 3016 2534 2758 2815 
Q 2500 3097 2075 3097 
Q 1594 3097 1305 2825 
Q 1016 2553 972 2059 
L 3022 2063 
z
" transform="scale(0.015625)"/>
       <path id="DejaVuSans-72" d="M 2631 2963 
Q 2534 3019 2420 3045 
Q 2306 3072 2169 3072 
Q 1681 3072 1420 2755 
Q 1159 2438 1159 1844 
L 1159 0 
L 581 0 
L 581 3500 
L 1159 3500 
L 1159 2956 
Q 1341 3275 1631 3429 
Q 1922 3584 2338 3584 
Q 2397 3584 2469 3576 
Q 2541 3569 2628 3553 
L 2631 2963 
z
" transform="scale(0.015625)"/>
       <path id="DejaVuSans-20" transform="scale(0.015625)"/>
       <path id="DejaVuSans-6f" d="M 1959 3097 
Q 1497 3097 1228 2736 
Q 959 2375 959 1747 
Q 959 1119 1226 758 
Q 1494 397 1959 397 
Q 2419 397 2687 759 
Q 2956 1122 2956 1747 
Q 2956 2369 2687 2733 
Q 2419 3097 1959 3097 
z
M 1959 3584 
Q 2709 3584 3137 3096 
Q 3566 2609 3566 1747 
Q 3566 888 3137 398 
Q 2709 -91 1959 -91 
Q 1206 -91 779 398 
Q 353 888 353 1747 
Q 353 2609 779 3096 
Q 1206 3584 1959 3584 
z
" transform="scale(0.015625)"/>
       <path id="DejaVuSans-66" d="M 2375 4863 
L 2375 4384 
L 1825 4384 
Q 1516 4384 1395 4259 
Q 1275 4134 1275 3809 
L 1275 3500 
L 2222 3500 
L 2222 3053 
L 1275 3053 
L 1275 0 
L 697 0 
L 697 3053 
L 147 3053 
L 147 3500 
L 697 3500 
L 697 3744 
Q 697 4328 969 4595 
Q 1241 4863 1831 4863 
L 2375 4863 
z
" transform="scale(0.015625)"/>
       <path id="DejaVuSans-69" d="M 603 3500 
L 1178 3500 
L 1178 0 
L 603 0 
L 603 3500 
z
M 603 4863 
L 1178 4863 
L 1178 4134 
L 603 4134 
L 603 4863 
z
" transform="scale(0.015625)"/>
       <path id="DejaVuSans-74" d="M 1172 4494 
L 1172 3500 
L 2356 3500 
L 2356 3053 
L 1172 3053 
L 1172 1153 
Q 1172 725 1289 603 
Q 1406 481 1766 481 
L 2356 481 
L 2356 0 
L 1766 0 
Q 1100 0 847 248 
Q 594 497 594 1153 
L 594 3053 
L 172 3053 
L 172 3500 
L 594 3500 
L 594 4494 
L 1172 4494 
z
" transform="scale(0.015625)"/>
       <path id="DejaVuSans-61" d="M 2194 1759 
Q 1497 1759 1228 1600 
Q 959 1441 959 1056 
Q 959 750 1161 570 
Q 1363 391 1709 391 
Q 2188 391 2477 730 
Q 2766 1069 2766 1631 
L 2766 1759 
L 2194 1759 
z
M 3341 1997 
L 3341 0 
L 2766 0 
L 2766 531 
Q 2569 213 2275 61 
Q 1981 -91 1556 -91 
Q 1019 -91 701 211 
Q 384 513 384 1019 
Q 384 1609 779 1909 
Q 1175 2209 1959 2209 
L 2766 2209 
L 2766 2266 
Q 2766 2663 2505 2880 
Q 2244 3097 1772 3097 
Q 1472 3097 1187 3025 
Q 903 2953 641 2809 
L 641 3341 
Q 956 3463 1253 3523 
Q 1550 3584 1831 3584 
Q 2591 3584 2966 3190 
Q 3341 2797 3341 1997 
z
" transform="scale(0.015625)"/>
       <path id="DejaVuSans-6e" d="M 3513 2113 
L 3513 0 
L 2938 0 
L 2938 2094 
Q 2938 2591 2744 2837 
Q 2550 3084 2163 3084 
Q 1697 3084 1428 2787 
Q 1159 2491 1159 1978 
L 1159 0 
L 581 0 
L 581 3500 
L 1159 3500 
L 1159 2956 
Q 1366 3272 1645 3428 
Q 1925 3584 2291 3584 
Q 2894 3584 3203 3211 
Q 3513 2838 3513 2113 
z
" transform="scale(0.015625)"/>
       <path id="DejaVuSans-73" d="M 2834 3397 
L 2834 2853 
Q 2591 2978 2328 3040 
Q 2066 3103 1784 3103 
Q 1356 3103 1142 2972 
Q 928 2841 928 2578 
Q 928 2378 1081 2264 
Q 1234 2150 1697 2047 
L 1894 2003 
Q 2506 1872 2764 1633 
Q 3022 1394 3022 966 
Q 3022 478 2636 193 
Q 2250 -91 1575 -91 
Q 1294 -91 989 -36 
Q 684 19 347 128 
L 347 722 
Q 666 556 975 473 
Q 1284 391 1588 391 
Q 1994 391 2212 530 
Q 2431 669 2431 922 
Q 2431 1156 2273 1281 
Q 2116 1406 1581 1522 
L 1381 1569 
Q 847 1681 609 1914 
Q 372 2147 372 2553 
Q 372 3047 722 3315 
Q 1072 3584 1716 3584 
Q 2034 3584 2315 3537 
Q 2597 3491 2834 3397 
z
" transform="scale(0.015625)"/>
      </defs>
      <use xlink:href="#DejaVuSans-4e"/>
      <use xlink:href="#DejaVuSans-75" x="74.804688"/>
      <use xlink:href="#DejaVuSans-6d" x="138.183594"/>
      <use xlink:href="#DejaVuSans-62" x="235.595703"/>
      <use xlink:href="#DejaVuSans-65" x="299.072266"/>
      <use xlink:href="#DejaVuSans-72" x="360.595703"/>
      <use xlink:href="#DejaVuSans-20" x="401.708984"/>
      <use xlink:href="#DejaVuSans-6f" x="433.496094"/>
      <use xlink:href="#DejaVuSans-66" x="494.677734"/>
      <use xlink:href="#DejaVuSans-20" x="529.882812"/>
      <use xlink:href="#DejaVuSans-69" x="561.669922"/>
      <use xlink:href="#DejaVuSans-74" x="589.453125"/>
      <use xlink:href="#DejaVuSans-65" x="628.662109"/>
      <use xlink:href="#DejaVuSans-72" x="690.185547"/>
      <use xlink:href="#DejaVuSans-61" x="731.298828"/>
      <use xlink:href="#DejaVuSans-74" x="792.578125"/>
      <use xlink:href="#DejaVuSans-69" x="831.787109"/>
      <use xlink:href="#DejaVuSans-6f" x="859.570312"/>
      <use xlink:href="#DejaVuSans-6e" x="920.751953"/>
      <use xlink:href="#DejaVuSans-73" x="984.130859"/>
     </g>
    </g>
   </g>
   <g id="matplotlib.axis_2">
    <g id="ytick_1">
     <g id="line2d_7">
      <defs>
       <path id="m26bc4d4efc" d="M 0 0 
L -3.5 0 
" style="stroke: #000000; stroke-width: 0.8"/>
      </defs>
      <g>
       <use xlink:href="#m26bc4d4efc" x="54" y="251.789086" style="stroke: #000000; stroke-width: 0.8"/>
      </g>
     </g>
     <g id="text_8">
      <!-- 0 -->
      <g transform="translate(40.6375 255.588304)scale(0.1 -0.1)">
       <use xlink:href="#DejaVuSans-30"/>
      </g>
     </g>
    </g>
    <g id="ytick_2">
     <g id="line2d_8">
      <g>
       <use xlink:href="#m26bc4d4efc" x="54" y="226.09653" style="stroke: #000000; stroke-width: 0.8"/>
      </g>
     </g>
     <g id="text_9">
      <!-- 1 -->
      <g transform="translate(40.6375 229.895749)scale(0.1 -0.1)">
       <use xlink:href="#DejaVuSans-31"/>
      </g>
     </g>
    </g>
    <g id="ytick_3">
     <g id="line2d_9">
      <g>
       <use xlink:href="#m26bc4d4efc" x="54" y="200.403975" style="stroke: #000000; stroke-width: 0.8"/>
      </g>
     </g>
     <g id="text_10">
      <!-- 2 -->
      <g transform="translate(40.6375 204.203194)scale(0.1 -0.1)">
       <use xlink:href="#DejaVuSans-32"/>
      </g>
     </g>
    </g>
    <g id="ytick_4">
     <g id="line2d_10">
      <g>
       <use xlink:href="#m26bc4d4efc" x="54" y="174.711419" style="stroke: #000000; stroke-width: 0.8"/>
      </g>
     </g>
     <g id="text_11">
      <!-- 3 -->
      <g transform="translate(40.6375 178.510638)scale(0.1 -0.1)">
       <defs>
        <path id="DejaVuSans-33" d="M 2597 2516 
Q 3050 2419 3304 2112 
Q 3559 1806 3559 1356 
Q 3559 666 3084 287 
Q 2609 -91 1734 -91 
Q 1441 -91 1130 -33 
Q 819 25 488 141 
L 488 750 
Q 750 597 1062 519 
Q 1375 441 1716 441 
Q 2309 441 2620 675 
Q 2931 909 2931 1356 
Q 2931 1769 2642 2001 
Q 2353 2234 1838 2234 
L 1294 2234 
L 1294 2753 
L 1863 2753 
Q 2328 2753 2575 2939 
Q 2822 3125 2822 3475 
Q 2822 3834 2567 4026 
Q 2313 4219 1838 4219 
Q 1578 4219 1281 4162 
Q 984 4106 628 3988 
L 628 4550 
Q 988 4650 1302 4700 
Q 1616 4750 1894 4750 
Q 2613 4750 3031 4423 
Q 3450 4097 3450 3541 
Q 3450 3153 3228 2886 
Q 3006 2619 2597 2516 
z
" transform="scale(0.015625)"/>
       </defs>
       <use xlink:href="#DejaVuSans-33"/>
      </g>
     </g>
    </g>
    <g id="ytick_5">
     <g id="line2d_11">
      <g>
       <use xlink:href="#m26bc4d4efc" x="54" y="149.018864" style="stroke: #000000; stroke-width: 0.8"/>
      </g>
     </g>
     <g id="text_12">
      <!-- 4 -->
      <g transform="translate(40.6375 152.818083)scale(0.1 -0.1)">
       <use xlink:href="#DejaVuSans-34"/>
      </g>
     </g>
    </g>
    <g id="ytick_6">
     <g id="line2d_12">
      <g>
       <use xlink:href="#m26bc4d4efc" x="54" y="123.326309" style="stroke: #000000; stroke-width: 0.8"/>
      </g>
     </g>
     <g id="text_13">
      <!-- 5 -->
      <g transform="translate(40.6375 127.125527)scale(0.1 -0.1)">
       <defs>
        <path id="DejaVuSans-35" d="M 691 4666 
L 3169 4666 
L 3169 4134 
L 1269 4134 
L 1269 2991 
Q 1406 3038 1543 3061 
Q 1681 3084 1819 3084 
Q 2600 3084 3056 2656 
Q 3513 2228 3513 1497 
Q 3513 744 3044 326 
Q 2575 -91 1722 -91 
Q 1428 -91 1123 -41 
Q 819 9 494 109 
L 494 744 
Q 775 591 1075 516 
Q 1375 441 1709 441 
Q 2250 441 2565 725 
Q 2881 1009 2881 1497 
Q 2881 1984 2565 2268 
Q 2250 2553 1709 2553 
Q 1456 2553 1204 2497 
Q 953 2441 691 2322 
L 691 4666 
z
" transform="scale(0.015625)"/>
       </defs>
       <use xlink:href="#DejaVuSans-35"/>
      </g>
     </g>
    </g>
    <g id="ytick_7">
     <g id="line2d_13">
      <g>
       <use xlink:href="#m26bc4d4efc" x="54" y="97.633753" style="stroke: #000000; stroke-width: 0.8"/>
      </g>
     </g>
     <g id="text_14">
      <!-- 6 -->
      <g transform="translate(40.6375 101.432972)scale(0.1 -0.1)">
       <use xlink:href="#DejaVuSans-36"/>
      </g>
     </g>
    </g>
    <g id="ytick_8">
     <g id="line2d_14">
      <g>
       <use xlink:href="#m26bc4d4efc" x="54" y="71.941198" style="stroke: #000000; stroke-width: 0.8"/>
      </g>
     </g>
     <g id="text_15">
      <!-- 7 -->
      <g transform="translate(40.6375 75.740416)scale(0.1 -0.1)">
       <defs>
        <path id="DejaVuSans-37" d="M 525 4666 
L 3525 4666 
L 3525 4397 
L 1831 0 
L 1172 0 
L 2766 4134 
L 525 4134 
L 525 4666 
z
" transform="scale(0.015625)"/>
       </defs>
       <use xlink:href="#DejaVuSans-37"/>
      </g>
     </g>
    </g>
    <g id="ytick_9">
     <g id="line2d_15">
      <g>
       <use xlink:href="#m26bc4d4efc" x="54" y="46.248642" style="stroke: #000000; stroke-width: 0.8"/>
      </g>
     </g>
     <g id="text_16">
      <!-- 8 -->
      <g transform="translate(40.6375 50.047861)scale(0.1 -0.1)">
       <use xlink:href="#DejaVuSans-38"/>
      </g>
     </g>
    </g>
    <g id="text_17">
     <!-- Damage cost/$billion -->
     <g transform="translate(34.557812 196.165938)rotate(-90)scale(0.1 -0.1)">
      <defs>
       <path id="DejaVuSans-44" d="M 1259 4147 
L 1259 519 
L 2022 519 
Q 2988 519 3436 956 
Q 3884 1394 3884 2338 
Q 3884 3275 3436 3711 
Q 2988 4147 2022 4147 
L 1259 4147 
z
M 628 4666 
L 1925 4666 
Q 3281 4666 3915 4102 
Q 4550 3538 4550 2338 
Q 4550 1131 3912 565 
Q 3275 0 1925 0 
L 628 0 
L 628 4666 
z
" transform="scale(0.015625)"/>
       <path id="DejaVuSans-67" d="M 2906 1791 
Q 2906 2416 2648 2759 
Q 2391 3103 1925 3103 
Q 1463 3103 1205 2759 
Q 947 2416 947 1791 
Q 947 1169 1205 825 
Q 1463 481 1925 481 
Q 2391 481 2648 825 
Q 2906 1169 2906 1791 
z
M 3481 434 
Q 3481 -459 3084 -895 
Q 2688 -1331 1869 -1331 
Q 1566 -1331 1297 -1286 
Q 1028 -1241 775 -1147 
L 775 -588 
Q 1028 -725 1275 -790 
Q 1522 -856 1778 -856 
Q 2344 -856 2625 -561 
Q 2906 -266 2906 331 
L 2906 616 
Q 2728 306 2450 153 
Q 2172 0 1784 0 
Q 1141 0 747 490 
Q 353 981 353 1791 
Q 353 2603 747 3093 
Q 1141 3584 1784 3584 
Q 2172 3584 2450 3431 
Q 2728 3278 2906 2969 
L 2906 3500 
L 3481 3500 
L 3481 434 
z
" transform="scale(0.015625)"/>
       <path id="DejaVuSans-63" d="M 3122 3366 
L 3122 2828 
Q 2878 2963 2633 3030 
Q 2388 3097 2138 3097 
Q 1578 3097 1268 2742 
Q 959 2388 959 1747 
Q 959 1106 1268 751 
Q 1578 397 2138 397 
Q 2388 397 2633 464 
Q 2878 531 3122 666 
L 3122 134 
Q 2881 22 2623 -34 
Q 2366 -91 2075 -91 
Q 1284 -91 818 406 
Q 353 903 353 1747 
Q 353 2603 823 3093 
Q 1294 3584 2113 3584 
Q 2378 3584 2631 3529 
Q 2884 3475 3122 3366 
z
" transform="scale(0.015625)"/>
       <path id="DejaVuSans-2f" d="M 1625 4666 
L 2156 4666 
L 531 -594 
L 0 -594 
L 1625 4666 
z
" transform="scale(0.015625)"/>
       <path id="DejaVuSans-24" d="M 2163 -941 
L 1850 -941 
L 1847 0 
Q 1519 6 1191 76 
Q 863 147 531 288 
L 531 850 
Q 850 650 1176 548 
Q 1503 447 1850 444 
L 1850 1869 
Q 1159 1981 845 2250 
Q 531 2519 531 2988 
Q 531 3497 872 3790 
Q 1213 4084 1850 4128 
L 1850 4863 
L 2163 4863 
L 2163 4138 
Q 2453 4125 2725 4076 
Q 2997 4028 3256 3944 
L 3256 3397 
Q 2997 3528 2723 3600 
Q 2450 3672 2163 3684 
L 2163 2350 
Q 2872 2241 3206 1959 
Q 3541 1678 3541 1191 
Q 3541 663 3186 358 
Q 2831 53 2163 6 
L 2163 -941 
z
M 1850 2406 
L 1850 3688 
Q 1488 3647 1297 3481 
Q 1106 3316 1106 3041 
Q 1106 2772 1282 2622 
Q 1459 2472 1850 2406 
z
M 2163 1806 
L 2163 453 
Q 2559 506 2761 678 
Q 2963 850 2963 1131 
Q 2963 1406 2770 1568 
Q 2578 1731 2163 1806 
z
" transform="scale(0.015625)"/>
       <path id="DejaVuSans-6c" d="M 603 4863 
L 1178 4863 
L 1178 0 
L 603 0 
L 603 4863 
z
" transform="scale(0.015625)"/>
      </defs>
      <use xlink:href="#DejaVuSans-44"/>
      <use xlink:href="#DejaVuSans-61" x="77.001953"/>
      <use xlink:href="#DejaVuSans-6d" x="138.28125"/>
      <use xlink:href="#DejaVuSans-61" x="235.693359"/>
      <use xlink:href="#DejaVuSans-67" x="296.972656"/>
      <use xlink:href="#DejaVuSans-65" x="360.449219"/>
      <use xlink:href="#DejaVuSans-20" x="421.972656"/>
      <use xlink:href="#DejaVuSans-63" x="453.759766"/>
      <use xlink:href="#DejaVuSans-6f" x="508.740234"/>
      <use xlink:href="#DejaVuSans-73" x="569.921875"/>
      <use xlink:href="#DejaVuSans-74" x="622.021484"/>
      <use xlink:href="#DejaVuSans-2f" x="661.230469"/>
      <use xlink:href="#DejaVuSans-24" x="694.921875"/>
      <use xlink:href="#DejaVuSans-62" x="758.544922"/>
      <use xlink:href="#DejaVuSans-69" x="822.021484"/>
      <use xlink:href="#DejaVuSans-6c" x="849.804688"/>
      <use xlink:href="#DejaVuSans-6c" x="877.587891"/>
      <use xlink:href="#DejaVuSans-69" x="905.371094"/>
      <use xlink:href="#DejaVuSans-6f" x="933.154297"/>
      <use xlink:href="#DejaVuSans-6e" x="994.335938"/>
     </g>
    </g>
   </g>
   <g id="line2d_16">
    <path d="M 69.218182 44.443636 
L 69.523155 112.218345 
L 69.828129 121.63563 
L 70.133103 98.043157 
L 70.438076 110.751402 
L 70.74305 67.202214 
L 71.048023 93.292899 
L 71.352997 93.384254 
L 71.65797 87.228316 
L 71.962944 96.982933 
L 72.267918 102.589069 
L 72.572891 98.487721 
L 72.877865 78.754954 
L 73.182838 90.116756 
L 73.487812 85.967362 
L 73.792786 101.283074 
L 74.097759 104.818181 
L 74.402733 100.658916 
L 74.707706 91.159005 
L 75.01268 98.209676 
L 75.317653 88.703474 
L 75.622627 96.159277 
L 75.927601 78.602888 
L 76.232574 101.437365 
L 76.537548 92.536787 
L 76.842521 99.130781 
L 77.147495 101.137616 
L 77.452469 89.845614 
L 77.757442 91.155816 
L 78.062416 97.283553 
L 78.367389 88.26606 
L 78.672363 92.824839 
L 78.977336 99.688662 
L 79.28231 100.655113 
L 79.587284 93.829097 
L 79.892257 98.18127 
L 80.197231 96.88923 
L 80.502204 97.584829 
L 80.807178 89.904522 
L 81.112152 95.572777 
L 81.417125 96.810545 
L 81.722099 92.044527 
L 82.027072 102.570235 
L 82.332046 89.325959 
L 82.637019 94.327486 
L 82.941993 95.135642 
L 83.246967 86.969011 
L 83.55194 95.654709 
L 84.161887 86.438084 
L 84.466861 97.444737 
L 84.771835 100.515111 
L 85.076808 89.362834 
L 85.381782 100.89677 
L 85.686755 91.482933 
L 85.991729 90.36089 
L 86.296702 93.390374 
L 86.601676 91.325347 
L 86.90665 92.997375 
L 87.211623 88.782446 
L 87.516597 86.679706 
L 87.82157 92.632136 
L 88.126544 89.702352 
L 88.431518 101.092998 
L 88.736491 88.966797 
L 89.041465 89.838685 
L 89.346438 91.332718 
L 89.651412 103.017543 
L 89.956385 89.294244 
L 90.261359 90.177972 
L 90.566333 88.377855 
L 90.871306 93.65604 
L 91.17628 91.951509 
L 91.481253 95.914211 
L 91.786227 97.027424 
L 92.396174 92.366086 
L 92.701148 93.989227 
L 93.006121 91.461574 
L 93.311095 94.072315 
L 93.616069 92.948276 
L 93.921042 90.372366 
L 94.226016 92.686262 
L 94.530989 86.683983 
L 94.835963 93.785349 
L 95.140936 91.474876 
L 95.44591 91.982281 
L 95.750884 84.684905 
L 96.055857 92.377763 
L 96.360831 86.617719 
L 96.665804 97.453572 
L 96.970778 91.305252 
L 97.275752 91.883449 
L 97.580725 89.681312 
L 97.885699 98.892267 
L 98.190672 98.441128 
L 98.495646 89.684429 
L 98.800619 97.908102 
L 99.105593 96.290101 
L 99.410567 93.413393 
L 99.71554 96.955511 
L 100.020514 88.190182 
L 100.325487 88.446989 
L 100.630461 95.617197 
L 100.935435 94.698403 
L 101.240408 94.448485 
L 101.545382 95.421571 
L 101.850355 90.320446 
L 102.460302 98.55257 
L 102.765276 89.75595 
L 103.07025 98.705339 
L 103.375223 91.618107 
L 103.680197 97.41743 
L 103.98517 91.699463 
L 104.290144 99.135348 
L 104.595118 89.128555 
L 104.900091 87.76482 
L 105.205065 99.140443 
L 105.510038 88.269676 
L 105.815012 95.730646 
L 106.119985 89.802244 
L 106.424959 94.869588 
L 106.729933 91.767301 
L 107.33988 89.821568 
L 107.644853 95.190086 
L 107.949827 95.529576 
L 108.254801 92.214819 
L 108.559774 96.424966 
L 108.864748 94.338928 
L 109.169721 97.461087 
L 109.474695 89.870656 
L 109.779668 88.753325 
L 110.389616 97.439524 
L 110.694589 93.54076 
L 110.999563 96.389557 
L 111.304536 94.626592 
L 111.60951 91.803176 
L 111.914484 93.444614 
L 112.219457 92.105237 
L 112.524431 97.548741 
L 113.134378 86.378952 
L 113.439351 97.301018 
L 113.744325 95.936554 
L 114.049299 96.161341 
L 114.354272 98.071288 
L 114.659246 93.307184 
L 114.964219 93.90328 
L 115.269193 92.609145 
L 115.574167 89.807695 
L 115.87914 91.645225 
L 116.184114 90.585917 
L 116.489087 91.994739 
L 116.794061 93.996548 
L 117.099034 91.631536 
L 117.404008 90.905882 
L 118.013955 92.438628 
L 118.318929 98.189888 
L 118.623902 92.951003 
L 118.928876 90.944835 
L 119.538823 94.890251 
L 119.843797 94.145327 
L 120.14877 89.275558 
L 120.453744 91.045412 
L 121.063691 89.136279 
L 121.368665 92.122853 
L 121.673638 90.754368 
L 121.978612 90.637229 
L 122.588559 96.823282 
L 122.893533 96.421309 
L 123.198506 93.714435 
L 123.50348 93.774439 
L 123.808453 98.876316 
L 124.113427 91.833007 
L 124.4184 91.921473 
L 124.723374 93.500961 
L 125.028348 90.972655 
L 125.333321 96.558143 
L 125.638295 93.003349 
L 125.943268 91.2906 
L 126.553216 91.610306 
L 126.858189 91.70569 
L 127.163163 95.669638 
L 127.468136 91.809044 
L 127.77311 95.418599 
L 128.078083 95.221681 
L 128.688031 90.020968 
L 128.993004 91.429294 
L 129.297978 94.170867 
L 129.602951 95.551193 
L 129.907925 93.662154 
L 130.212899 92.846574 
L 130.517872 96.470146 
L 130.822846 95.656714 
L 131.127819 91.665902 
L 131.432793 91.814457 
L 131.737766 93.585116 
L 132.04274 91.158384 
L 132.347714 95.837818 
L 132.652687 88.663767 
L 132.957661 86.784241 
L 133.262634 96.768397 
L 133.567608 94.449217 
L 133.872582 96.052713 
L 134.177555 92.230469 
L 134.482529 97.122649 
L 134.787502 85.02038 
L 135.092476 91.635039 
L 135.397449 92.192781 
L 135.702423 95.973813 
L 136.007397 90.653556 
L 136.31237 94.695151 
L 136.617344 90.155223 
L 136.922317 91.715878 
L 137.227291 89.641903 
L 137.532265 93.337147 
L 137.837238 95.256931 
L 138.142212 90.353148 
L 138.447185 93.588083 
L 138.752159 90.904076 
L 139.057132 93.398816 
L 139.362106 91.041114 
L 139.66708 97.198669 
L 139.972053 92.853893 
L 140.582 90.587504 
L 140.886974 91.650156 
L 141.191948 94.974264 
L 141.496921 92.501016 
L 141.801895 93.307413 
L 142.106868 90.100068 
L 142.411842 93.297819 
L 143.021789 94.894873 
L 143.326763 95.189956 
L 143.631736 90.391185 
L 143.93671 91.74737 
L 144.241683 91.488518 
L 144.546657 93.038989 
L 144.851631 92.902285 
L 145.156604 94.097425 
L 145.461578 96.46928 
L 145.766551 93.603557 
L 146.071525 91.867701 
L 146.376498 98.720815 
L 146.681472 95.80208 
L 146.986446 95.845572 
L 147.291419 94.773882 
L 147.596393 90.91173 
L 147.901366 91.404194 
L 148.20634 90.416068 
L 148.511314 96.143283 
L 149.121261 90.89585 
L 149.426234 91.2267 
L 149.731208 88.812527 
L 150.036181 94.828948 
L 150.646129 92.800061 
L 150.951102 93.928284 
L 151.256076 89.809514 
L 151.561049 92.75576 
L 151.866023 94.284463 
L 152.170997 94.402327 
L 152.47597 88.4424 
L 152.780944 93.817905 
L 153.085917 90.191874 
L 153.390891 96.273586 
L 153.695864 95.362249 
L 154.000838 90.133344 
L 154.305812 95.719398 
L 154.610785 93.959704 
L 154.915759 93.808908 
L 155.525706 93.847203 
L 155.83068 90.826378 
L 156.135653 93.984659 
L 156.440627 92.142783 
L 156.7456 91.921383 
L 157.050574 95.402001 
L 157.355547 94.806093 
L 157.660521 92.015449 
L 157.965495 94.146568 
L 158.270468 92.530494 
L 158.575442 92.716106 
L 158.880415 89.995725 
L 159.185389 91.364276 
L 159.490363 89.058847 
L 159.795336 95.331989 
L 160.10031 94.575472 
L 161.01523 91.522944 
L 161.320204 88.526659 
L 161.625178 93.217949 
L 161.930151 90.492065 
L 162.235125 91.310451 
L 162.540098 93.628642 
L 162.845072 91.927509 
L 163.150046 96.413197 
L 163.455019 92.536368 
L 164.064966 94.455856 
L 164.36994 90.291426 
L 164.674913 93.098397 
L 164.979887 89.513967 
L 165.284861 98.039054 
L 165.589834 93.161233 
L 165.894808 91.242809 
L 166.199781 95.016685 
L 166.504755 95.746373 
L 166.809729 92.149605 
L 167.419676 91.043127 
L 167.724649 91.285744 
L 168.029623 91.680253 
L 168.334596 93.325208 
L 168.63957 91.719036 
L 168.944544 94.588951 
L 169.249517 90.671399 
L 169.554491 89.281036 
L 169.859464 93.171123 
L 170.164438 95.038237 
L 170.469412 94.194925 
L 171.079359 89.754837 
L 171.384332 92.731841 
L 171.689306 92.426465 
L 171.994279 97.218762 
L 172.299253 92.659497 
L 172.604227 96.006616 
L 172.9092 92.962567 
L 173.214174 91.36843 
L 173.824121 95.611291 
L 174.129095 95.509077 
L 174.434068 94.417388 
L 174.739042 95.891478 
L 175.044015 91.096973 
L 175.348989 88.877098 
L 175.958936 93.487485 
L 176.26391 92.3743 
L 176.873857 95.220242 
L 177.17883 92.319136 
L 177.483804 93.495776 
L 177.788778 93.567574 
L 178.093751 94.142605 
L 178.398725 93.657603 
L 178.703698 92.566749 
L 179.008672 93.692659 
L 179.313645 93.685673 
L 179.618619 90.004545 
L 179.923593 92.830745 
L 180.228566 93.40856 
L 180.53354 89.71816 
L 180.838513 94.73659 
L 181.143487 92.057471 
L 181.448461 90.81714 
L 181.753434 93.319094 
L 182.058408 94.200809 
L 182.363381 91.486472 
L 182.668355 97.639448 
L 182.973328 90.451508 
L 183.278302 97.454306 
L 183.888249 90.871957 
L 184.193223 93.814246 
L 184.498196 91.994931 
L 184.80317 93.782745 
L 185.108144 93.266962 
L 185.413117 94.374102 
L 185.718091 91.084339 
L 186.023064 92.360051 
L 186.328038 91.510502 
L 186.633011 95.481283 
L 186.937985 96.29136 
L 187.242959 94.812281 
L 187.547932 92.366699 
L 187.852906 92.382447 
L 188.462853 93.842112 
L 189.0728 91.297733 
L 189.377774 92.239091 
L 189.682747 93.781449 
L 189.987721 92.668309 
L 190.292694 92.700946 
L 190.597668 96.103873 
L 190.902642 92.315672 
L 191.207615 93.672331 
L 191.512589 93.906671 
L 191.817562 93.692378 
L 192.122536 94.231056 
L 192.42751 90.378765 
L 193.037457 94.073814 
L 193.34243 93.527602 
L 193.647404 91.22852 
L 194.257351 94.047504 
L 194.867298 91.486254 
L 195.172272 93.135306 
L 195.477245 92.437737 
L 195.782219 94.826658 
L 196.087193 91.943752 
L 196.392166 93.505903 
L 196.69714 90.18941 
L 197.002113 92.288079 
L 197.307087 95.580071 
L 197.61206 93.143432 
L 197.917034 91.890499 
L 198.222008 92.924962 
L 198.526981 91.453277 
L 198.831955 95.304053 
L 199.136928 90.938682 
L 199.441902 92.703787 
L 199.746876 92.65426 
L 200.051849 95.831044 
L 200.356823 93.29226 
L 200.661796 92.199404 
L 201.271743 95.049348 
L 201.576717 94.328616 
L 201.881691 93.074777 
L 202.186664 92.319047 
L 202.491638 94.064604 
L 202.796611 92.388541 
L 203.101585 92.62306 
L 203.406559 92.068817 
L 203.711532 94.129753 
L 204.016506 92.78867 
L 204.321479 94.790215 
L 204.931426 95.389459 
L 205.2364 92.047205 
L 205.541374 90.580818 
L 205.846347 91.544744 
L 206.151321 90.455602 
L 206.456294 94.562721 
L 206.761268 92.391668 
L 207.066242 93.079586 
L 207.371215 92.998889 
L 207.676189 92.448265 
L 207.981162 93.581718 
L 208.286136 92.491443 
L 208.896083 91.926921 
L 209.201057 92.150341 
L 209.50603 93.343289 
L 209.811004 92.542452 
L 210.115977 93.513245 
L 210.725925 92.249421 
L 211.030898 92.790202 
L 211.335872 93.562867 
L 211.640845 93.729843 
L 211.945819 91.74665 
L 212.250792 91.033692 
L 212.86074 94.986208 
L 213.165713 93.534179 
L 213.470687 94.638604 
L 213.77566 92.601709 
L 214.080634 94.230315 
L 214.385608 94.565258 
L 214.690581 91.675043 
L 214.995555 91.484893 
L 215.300528 94.561339 
L 215.605502 92.39108 
L 215.910475 91.423292 
L 216.215449 92.961953 
L 216.520423 92.921937 
L 216.825396 94.572663 
L 217.740317 92.426492 
L 218.045291 91.489955 
L 218.350264 95.040878 
L 218.655238 95.272112 
L 218.960211 93.986779 
L 219.265185 94.555187 
L 219.570158 93.209771 
L 219.875132 95.161023 
L 220.180106 93.358443 
L 220.485079 93.542508 
L 220.790053 94.759048 
L 221.095026 91.18165 
L 221.4 93.444569 
L 222.009947 91.83894 
L 222.314921 92.580421 
L 222.619894 92.231113 
L 222.924868 94.251323 
L 223.229842 92.916296 
L 223.534815 93.972659 
L 224.144762 93.033189 
L 224.449736 93.665049 
L 224.754709 92.200603 
L 225.059683 92.745763 
L 225.364657 92.758736 
L 225.66963 91.479226 
L 225.974604 94.312362 
L 226.279577 95.343686 
L 226.584551 92.202986 
L 226.889525 93.796773 
L 227.194498 93.528978 
L 227.499472 94.525254 
L 227.804445 91.476674 
L 228.109419 92.496493 
L 228.414392 92.338054 
L 228.719366 92.435436 
L 229.02434 92.899978 
L 229.329313 92.475044 
L 229.634287 93.583 
L 229.93926 92.333724 
L 230.244234 94.319986 
L 230.549208 93.532007 
L 230.854181 94.227249 
L 231.159155 93.843612 
L 231.464128 92.667745 
L 231.769102 93.370253 
L 232.074075 90.880199 
L 232.379049 95.701966 
L 232.684023 92.7372 
L 232.988996 93.809825 
L 233.29397 92.547947 
L 233.903917 92.981897 
L 234.208891 95.527727 
L 234.513864 95.391211 
L 234.818838 92.597112 
L 235.123811 92.719625 
L 235.428785 94.580485 
L 235.733758 94.212031 
L 236.038732 91.935687 
L 236.343706 92.091386 
L 236.648679 94.521446 
L 236.953653 93.01353 
L 237.258626 92.742107 
L 237.5636 92.717273 
L 237.868574 91.09666 
L 238.173547 93.539032 
L 238.478521 93.720785 
L 238.783494 93.009222 
L 239.088468 95.161205 
L 239.393441 93.099217 
L 239.698415 92.561298 
L 240.003389 92.440255 
L 240.308362 94.207518 
L 240.613336 92.353004 
L 241.223283 93.270409 
L 241.83323 92.530979 
L 242.138204 92.616291 
L 242.443177 91.645247 
L 242.748151 92.20249 
L 243.053124 93.876973 
L 243.358098 92.89182 
L 243.663072 94.494668 
L 243.968045 91.276722 
L 244.273019 94.461209 
L 244.577992 93.579446 
L 244.882966 93.303188 
L 245.18794 91.74187 
L 245.492913 93.692585 
L 245.797887 92.158546 
L 246.10286 92.759608 
L 246.407834 90.928346 
L 247.017781 93.484111 
L 247.322755 93.067231 
L 247.627728 92.993955 
L 247.932702 91.909862 
L 248.237675 94.093688 
L 248.542649 92.585937 
L 248.847623 91.658172 
L 249.152596 92.921599 
L 249.45757 93.004538 
L 249.762543 92.163175 
L 250.067517 92.394724 
L 250.37249 93.203151 
L 250.677464 92.009582 
L 250.982438 93.302167 
L 251.287411 93.556277 
L 251.592385 93.270669 
L 251.897358 93.542183 
L 252.202332 93.211501 
L 252.507306 93.659088 
L 252.812279 92.085574 
L 253.117253 93.098652 
L 253.422226 94.689575 
L 253.7272 91.430321 
L 254.032173 93.404896 
L 254.337147 91.581617 
L 254.642121 93.45888 
L 254.947094 92.529076 
L 255.252068 90.989989 
L 255.557041 95.26488 
L 255.862015 92.616131 
L 256.166989 92.482373 
L 256.471962 92.771283 
L 256.776936 93.692192 
L 257.081909 92.71129 
L 257.386883 93.347549 
L 257.691856 92.828184 
L 257.99683 93.26455 
L 258.606777 91.760231 
L 258.911751 94.180194 
L 259.216724 92.97713 
L 259.521698 92.877742 
L 259.826672 91.420844 
L 260.131645 92.768195 
L 260.436619 93.300177 
L 260.741592 94.714166 
L 261.046566 94.461608 
L 261.351539 93.618569 
L 261.656513 92.102537 
L 261.961487 92.917717 
L 262.26646 94.293782 
L 262.571434 92.824492 
L 262.876407 93.362447 
L 263.181381 93.272388 
L 263.486355 93.639858 
L 263.791328 93.143067 
L 264.096302 91.669268 
L 264.401275 92.639385 
L 264.706249 90.688278 
L 265.011222 93.16772 
L 265.316196 93.500142 
L 265.62117 93.153045 
L 265.926143 93.506913 
L 266.231117 92.71623 
L 266.841064 94.280736 
L 267.146038 92.979676 
L 267.451011 93.367902 
L 267.755985 91.401335 
L 268.060958 93.375363 
L 268.670905 93.900034 
L 268.975879 92.440014 
L 269.280853 93.394773 
L 269.585826 93.178017 
L 269.8908 91.948359 
L 270.500747 93.740673 
L 270.805721 93.341804 
L 271.110694 93.925986 
L 271.415668 93.292746 
L 271.720641 93.315522 
L 272.025615 92.355208 
L 272.330588 93.160794 
L 272.635562 94.65293 
L 272.940536 93.850671 
L 273.245509 92.011469 
L 273.550483 93.628902 
L 273.855456 93.627655 
L 274.16043 94.818147 
L 274.770377 91.57237 
L 275.075351 95.130918 
L 275.685298 92.662843 
L 275.990271 92.618698 
L 276.295245 93.755667 
L 276.600219 92.904165 
L 276.905192 93.649998 
L 277.210166 92.230016 
L 277.515139 91.715851 
L 277.820113 94.231579 
L 278.125087 92.474378 
L 278.43006 93.025888 
L 278.735034 92.871933 
L 279.040007 93.196692 
L 279.344981 93.691159 
L 279.649954 92.960167 
L 279.954928 93.739494 
L 280.259902 93.849212 
L 280.564875 93.457531 
L 280.869849 92.78133 
L 281.174822 91.704768 
L 281.479796 94.076529 
L 281.78477 93.825713 
L 282.394717 92.830325 
L 282.69969 92.52662 
L 283.004664 93.574753 
L 283.309637 91.527805 
L 283.614611 92.890012 
L 283.919585 93.221962 
L 284.224558 93.088396 
L 284.529532 94.474093 
L 284.834505 91.516061 
L 285.139479 94.604801 
L 285.444453 93.288654 
L 285.749426 94.432071 
L 286.0544 93.406224 
L 286.359373 93.176237 
L 286.664347 93.099347 
L 287.274294 92.427635 
L 287.884241 93.774914 
L 288.189215 93.883789 
L 288.494188 92.8314 
L 288.799162 93.644249 
L 289.104136 92.540152 
L 289.409109 91.997613 
L 289.714083 93.803261 
L 290.019056 93.433329 
L 290.32403 93.695114 
L 290.629003 92.79396 
L 291.543924 93.158173 
L 291.848898 93.465221 
L 292.153871 93.150672 
L 292.458845 93.69385 
L 292.763819 95.331259 
L 293.068792 92.849437 
L 293.373766 93.179939 
L 293.678739 93.102112 
L 293.983713 93.414489 
L 294.288686 93.396967 
L 294.59366 93.572529 
L 295.203607 92.477723 
L 295.508581 93.176783 
L 295.813554 93.080858 
L 296.118528 93.667669 
L 296.423502 93.1054 
L 296.728475 93.12792 
L 297.033449 92.32669 
L 297.338422 92.856266 
L 297.643396 93.824668 
L 297.948369 93.692662 
L 298.253343 94.212047 
L 298.558317 93.357517 
L 298.86329 93.655332 
L 299.168264 93.337999 
L 299.473237 93.480187 
L 299.778211 92.309231 
L 300.083185 93.593197 
L 300.388158 94.253142 
L 300.693132 92.241898 
L 300.998105 93.520751 
L 301.303079 92.284665 
L 302.218 94.046735 
L 302.522973 92.147854 
L 302.827947 93.843244 
L 303.13292 94.129815 
L 303.437894 92.369709 
L 303.742868 94.028973 
L 304.047841 92.629398 
L 304.352815 92.588238 
L 304.657788 92.404443 
L 304.962762 92.739317 
L 305.267735 93.767395 
L 305.572709 93.609026 
L 305.877683 94.049598 
L 306.182656 93.497736 
L 306.48763 93.206481 
L 306.792603 94.245496 
L 307.097577 93.755953 
L 307.402551 93.760938 
L 307.707524 92.539614 
L 308.012498 92.351176 
L 308.317471 93.338457 
L 308.622445 92.782933 
L 308.927418 93.088756 
L 309.537366 94.058352 
L 309.842339 93.271465 
L 310.147313 93.314051 
L 310.75726 93.134317 
L 311.062234 93.421129 
L 311.367207 93.205778 
L 311.672181 93.636502 
L 311.977154 93.468419 
L 312.282128 93.117227 
L 312.587101 94.362647 
L 313.197049 92.494626 
L 313.502022 93.879794 
L 313.806996 93.970369 
L 314.416943 92.115171 
L 314.721917 93.691336 
L 315.02689 93.363373 
L 315.331864 93.847692 
L 315.636837 93.650802 
L 315.941811 92.768419 
L 316.246784 93.075997 
L 316.551758 92.838194 
L 316.856732 93.233519 
L 317.161705 92.247785 
L 317.466679 92.499583 
L 317.771652 93.264386 
L 318.076626 92.95163 
L 318.3816 92.808199 
L 318.686573 92.410219 
L 318.991547 94.197717 
L 319.29652 93.208878 
L 319.601494 93.525296 
L 319.906467 94.034778 
L 320.211441 93.421635 
L 320.516415 93.54063 
L 320.821388 92.845567 
L 321.126362 93.488966 
L 321.431335 92.768554 
L 321.736309 93.371421 
L 322.041283 92.721192 
L 322.346256 92.876918 
L 322.65123 93.814416 
L 322.956203 93.195102 
L 323.261177 94.082325 
L 323.56615 92.196979 
L 323.871124 92.647549 
L 324.176098 93.702908 
L 324.481071 93.211618 
L 324.786045 92.937541 
L 325.091018 93.226996 
L 325.395992 93.315169 
L 325.700966 92.170244 
L 326.005939 93.807259 
L 326.310913 94.197559 
L 326.615886 93.704616 
L 326.92086 93.481021 
L 327.225833 92.416923 
L 327.530807 93.812374 
L 327.835781 94.383262 
L 328.140754 94.277515 
L 328.445728 93.28539 
L 328.750701 93.61177 
L 329.055675 92.917196 
L 329.360649 92.827031 
L 329.665622 93.663254 
L 329.970596 93.545081 
L 330.275569 93.953964 
L 330.580543 93.136356 
L 330.885516 94.028456 
L 331.19049 93.275921 
L 331.495464 94.008486 
L 331.800437 92.702936 
L 332.105411 93.135807 
L 332.410384 92.606551 
L 332.715358 93.80799 
L 333.020332 92.836512 
L 333.325305 93.546902 
L 333.630279 92.653194 
L 333.935252 92.298951 
L 334.240226 92.833906 
L 334.545199 92.804613 
L 334.850173 93.226785 
L 335.155147 93.412506 
L 335.46012 92.78194 
L 335.765094 93.632565 
L 336.375041 93.323015 
L 336.680015 92.808992 
L 336.984988 93.421249 
L 337.289962 92.593997 
L 337.594935 92.121866 
L 337.899909 93.763272 
L 338.204882 92.990532 
L 338.509856 93.473831 
L 338.81483 92.1713 
L 339.119803 92.866455 
L 339.424777 92.965932 
L 339.72975 92.787087 
L 340.034724 93.131648 
L 340.339698 93.156242 
L 340.644671 93.575109 
L 340.949645 93.41748 
L 341.254618 92.583222 
L 341.559592 93.325642 
L 341.864565 92.985617 
L 342.169539 93.320047 
L 342.474513 93.130646 
L 343.08446 93.239734 
L 343.389433 93.463135 
L 343.694407 93.434111 
L 344.304354 93.063616 
L 344.609328 93.134367 
L 345.219275 92.654002 
L 345.524248 93.45554 
L 345.829222 93.636498 
L 346.134196 93.02139 
L 346.439169 93.014774 
L 346.744143 93.457965 
L 347.049116 92.841904 
L 347.35409 93.008843 
L 347.659064 92.772212 
L 347.964037 92.898263 
L 348.269011 93.254629 
L 348.573984 92.984515 
L 348.878958 93.202632 
L 349.183931 92.963121 
L 349.488905 93.042472 
L 349.793879 93.658964 
L 350.098852 92.83073 
L 350.403826 92.995488 
L 350.708799 93.497178 
L 351.013773 93.514422 
L 351.318747 92.456691 
L 351.62372 93.01627 
L 351.928694 93.286345 
L 352.233667 92.723782 
L 352.538641 92.775799 
L 352.843615 93.33464 
L 353.148588 93.133694 
L 353.453562 93.39387 
L 353.758535 92.908543 
L 354.368482 92.84444 
L 354.673456 93.655491 
L 354.97843 93.128428 
L 355.283403 93.194789 
L 355.588377 93.516836 
L 355.89335 93.382709 
L 356.503298 93.519593 
L 356.808271 93.756854 
L 357.113245 92.830352 
L 357.418218 93.394094 
L 357.723192 93.106547 
L 358.028165 93.135782 
L 358.333139 93.392269 
L 358.638113 93.497452 
L 358.943086 93.305313 
L 359.24806 93.638504 
L 359.553033 93.236113 
L 359.858007 93.360041 
L 360.162981 93.251883 
L 360.772928 93.552147 
L 361.382875 93.125942 
L 361.687848 93.033389 
L 361.992822 93.18472 
L 362.602769 93.01616 
L 362.907743 93.415796 
L 363.51769 92.870583 
L 364.432611 92.836118 
L 364.737584 93.140505 
L 365.042558 93.129551 
L 365.347531 93.370406 
L 365.652505 93.39387 
L 365.957479 92.983385 
L 366.262452 93.143143 
L 366.567426 93.02723 
L 366.872399 93.599116 
L 367.177373 93.621994 
L 367.482347 93.006151 
L 367.78732 93.162291 
L 368.702241 93.158291 
L 369.007214 93.363375 
L 369.312188 93.422051 
L 370.227109 93.193865 
L 370.532082 93.40953 
L 370.837056 93.167132 
L 371.751977 93.226604 
L 372.05695 93.469477 
L 372.361924 93.030277 
L 372.666897 93.248187 
L 372.971871 93.105371 
L 373.581818 93.149291 
L 373.581818 93.149291 
" clip-path="url(#p8aa3551ce5)" style="fill: none; stroke: #1f77b4; stroke-width: 1.5; stroke-linecap: square"/>
   </g>
   <g id="line2d_17">
    <path d="M 69.218182 219.558556 
L 69.828129 240.73914 
L 70.133103 242.116364 
L 70.438076 239.228685 
L 70.74305 226.167786 
L 71.048023 236.00085 
L 71.352997 233.404566 
L 71.65797 227.39345 
L 71.962944 238.622869 
L 72.572891 236.111243 
L 72.877865 236.391445 
L 73.487812 232.490759 
L 73.792786 241.768767 
L 74.097759 232.235206 
L 74.402733 240.081103 
L 74.707706 237.50069 
L 75.01268 237.782399 
L 75.317653 236.638155 
L 75.622627 238.013139 
L 75.927601 236.11443 
L 76.232574 235.444997 
L 76.537548 236.538536 
L 76.842521 238.106825 
L 77.147495 235.952736 
L 77.452469 237.947241 
L 77.757442 234.233406 
L 78.062416 238.218546 
L 78.367389 237.831745 
L 78.672363 238.239493 
L 78.977336 232.452971 
L 79.28231 237.674277 
L 79.587284 230.295204 
L 79.892257 232.437771 
L 80.197231 232.440723 
L 80.502204 238.089848 
L 80.807178 235.681278 
L 81.112152 239.43699 
L 81.417125 239.948867 
L 81.722099 236.604562 
L 82.027072 234.604299 
L 82.332046 235.397211 
L 82.637019 238.482884 
L 83.246967 232.616497 
L 83.55194 233.831611 
L 83.856914 236.195066 
L 84.161887 237.032691 
L 84.466861 235.079777 
L 84.771835 235.405508 
L 85.076808 236.639893 
L 85.381782 234.161707 
L 85.686755 234.536283 
L 85.991729 235.754102 
L 86.296702 235.84724 
L 86.601676 234.305541 
L 86.90665 234.740681 
L 87.211623 237.235101 
L 87.516597 237.896267 
L 87.82157 233.106516 
L 88.126544 235.198046 
L 88.431518 234.714831 
L 88.736491 237.277484 
L 89.041465 236.972574 
L 89.346438 236.249976 
L 89.651412 234.9467 
L 89.956385 235.990373 
L 90.261359 234.461994 
L 90.566333 235.720575 
L 90.871306 234.301289 
L 91.17628 234.89295 
L 91.481253 233.664543 
L 92.091201 236.326244 
L 92.396174 232.887183 
L 92.701148 237.026763 
L 93.006121 234.927758 
L 93.311095 235.677252 
L 93.616069 237.136308 
L 93.921042 236.786323 
L 94.226016 238.068894 
L 94.530989 234.68164 
L 94.835963 236.013783 
L 95.44591 233.250219 
L 95.750884 236.204284 
L 96.055857 237.084373 
L 96.360831 235.574147 
L 96.665804 237.226622 
L 96.970778 234.460836 
L 97.275752 235.860736 
L 97.580725 235.939705 
L 97.885699 233.63709 
L 98.190672 235.895981 
L 98.495646 236.673798 
L 99.105593 235.431589 
L 99.410567 233.666798 
L 99.71554 236.34859 
L 100.020514 236.973164 
L 100.325487 236.286966 
L 100.630461 238.198103 
L 100.935435 236.143453 
L 101.545382 237.605144 
L 101.850355 235.818486 
L 102.155329 234.926166 
L 102.460302 237.215196 
L 103.07025 234.39264 
L 103.680197 237.980677 
L 103.98517 235.27141 
L 104.290144 236.211837 
L 104.595118 234.611033 
L 104.900091 236.787448 
L 105.205065 235.732489 
L 105.510038 236.670563 
L 105.815012 235.035688 
L 106.119985 237.053053 
L 106.424959 235.133984 
L 106.729933 235.709015 
L 107.034906 237.33055 
L 107.33988 237.088949 
L 107.644853 234.324032 
L 107.949827 235.945993 
L 108.254801 234.276447 
L 108.559774 236.841363 
L 108.864748 234.252504 
L 109.169721 235.449542 
L 109.474695 234.242242 
L 109.779668 238.104821 
L 110.084642 233.774083 
L 110.389616 236.918309 
L 110.694589 235.823507 
L 110.999563 236.337119 
L 111.304536 233.998806 
L 111.60951 235.627568 
L 111.914484 234.572714 
L 112.219457 235.91068 
L 112.524431 235.944536 
L 112.829404 235.685427 
L 113.134378 236.957278 
L 113.439351 235.274549 
L 113.744325 236.008128 
L 114.049299 234.166934 
L 114.354272 234.97592 
L 114.659246 234.979057 
L 114.964219 233.442436 
L 115.269193 235.671491 
L 115.574167 235.616432 
L 115.87914 237.041679 
L 116.184114 234.395326 
L 116.489087 236.426732 
L 116.794061 235.056497 
L 117.099034 235.310505 
L 117.404008 233.713838 
L 117.708982 233.526005 
L 118.013955 235.970201 
L 118.318929 235.021962 
L 118.623902 237.167495 
L 118.928876 235.16607 
L 119.23385 234.977556 
L 119.538823 235.058582 
L 119.843797 234.052122 
L 120.14877 235.929424 
L 120.453744 235.130874 
L 120.758717 234.949781 
L 121.063691 237.024435 
L 121.368665 235.931034 
L 121.673638 237.199752 
L 121.978612 235.535836 
L 122.283585 235.101308 
L 122.588559 235.760313 
L 122.893533 235.82733 
L 123.50348 233.957443 
L 123.808453 237.423087 
L 124.113427 236.966871 
L 124.4184 235.263983 
L 124.723374 236.07586 
L 125.028348 236.56285 
L 125.638295 235.951407 
L 125.943268 235.939296 
L 126.248242 235.294629 
L 126.553216 235.488585 
L 127.163163 236.361454 
L 127.468136 235.433642 
L 127.77311 236.307807 
L 128.078083 235.799043 
L 128.383057 236.840762 
L 128.688031 234.862474 
L 128.993004 234.944755 
L 129.297978 235.521604 
L 129.602951 236.793802 
L 129.907925 235.231291 
L 130.212899 235.525051 
L 130.517872 236.614989 
L 130.822846 235.285229 
L 131.127819 235.558364 
L 131.432793 236.492511 
L 131.737766 236.377681 
L 132.04274 236.534187 
L 132.347714 235.690869 
L 132.652687 236.291141 
L 132.957661 234.612986 
L 133.262634 236.985875 
L 133.567608 235.280491 
L 133.872582 235.19448 
L 134.177555 236.565298 
L 134.482529 234.498256 
L 134.787502 234.959583 
L 135.092476 236.283153 
L 135.702423 235.07293 
L 136.007397 236.573377 
L 136.31237 236.196461 
L 136.617344 235.006821 
L 137.227291 236.711303 
L 137.532265 235.517004 
L 137.837238 235.695531 
L 138.142212 234.111098 
L 138.447185 236.303838 
L 138.752159 235.483217 
L 139.057132 236.541554 
L 139.362106 235.085067 
L 139.66708 235.910747 
L 139.972053 234.999645 
L 140.277027 234.833402 
L 140.582 236.366837 
L 140.886974 235.814521 
L 141.496921 235.624196 
L 141.801895 233.525561 
L 142.106868 233.927242 
L 142.411842 235.082655 
L 142.716815 235.15386 
L 143.021789 235.774824 
L 143.326763 237.03203 
L 143.93671 235.001537 
L 144.241683 237.130402 
L 144.546657 235.045888 
L 144.851631 234.25096 
L 145.156604 235.42909 
L 145.461578 235.79782 
L 145.766551 235.743431 
L 146.071525 234.710014 
L 146.376498 234.341621 
L 146.681472 234.576179 
L 146.986446 236.049639 
L 147.291419 236.758099 
L 147.596393 235.616952 
L 147.901366 235.357264 
L 148.20634 235.817029 
L 148.511314 234.832994 
L 148.816287 235.783933 
L 149.426234 234.904554 
L 149.731208 235.420022 
L 150.036181 236.191584 
L 150.341155 235.495454 
L 150.646129 235.196904 
L 150.951102 235.094704 
L 151.256076 235.578026 
L 151.561049 236.542071 
L 151.866023 236.101167 
L 152.170997 235.314091 
L 152.47597 236.017942 
L 152.780944 236.212909 
L 153.085917 234.751418 
L 153.390891 235.269726 
L 153.695864 236.756089 
L 154.000838 235.205023 
L 154.305812 235.605633 
L 154.610785 237.7169 
L 154.915759 234.659406 
L 155.220732 234.375507 
L 155.83068 236.262535 
L 156.135653 234.997623 
L 156.7456 235.089164 
L 157.050574 234.426794 
L 157.355547 235.498384 
L 157.965495 235.526479 
L 158.270468 236.017965 
L 158.575442 234.198333 
L 158.880415 236.2513 
L 159.185389 235.480237 
L 159.490363 235.093311 
L 159.795336 236.348673 
L 160.10031 235.088682 
L 160.405283 236.330833 
L 160.710257 235.821719 
L 161.01523 235.543031 
L 161.320204 235.632014 
L 161.625178 235.420138 
L 161.930151 235.487358 
L 162.235125 235.893243 
L 162.845072 235.805807 
L 163.150046 235.096448 
L 164.064966 235.387196 
L 164.36994 236.549041 
L 164.674913 235.275366 
L 164.979887 235.673244 
L 165.284861 235.294332 
L 165.894808 235.687301 
L 166.199781 235.510522 
L 166.504755 236.632456 
L 166.809729 234.733649 
L 167.114702 235.980908 
L 167.419676 235.593915 
L 167.724649 236.061833 
L 168.029623 236.964019 
L 168.334596 235.795416 
L 168.63957 235.623787 
L 168.944544 235.913099 
L 169.249517 235.351939 
L 169.554491 236.490084 
L 169.859464 235.075642 
L 170.164438 235.531621 
L 170.469412 235.493188 
L 170.774385 235.316707 
L 171.079359 236.02433 
L 171.384332 235.372523 
L 171.689306 234.088909 
L 171.994279 235.007764 
L 172.299253 236.783792 
L 172.604227 235.517984 
L 172.9092 234.928223 
L 173.214174 235.693092 
L 173.519147 235.205888 
L 173.824121 235.209842 
L 174.129095 234.816471 
L 174.434068 235.683262 
L 174.739042 235.798959 
L 175.348989 235.503985 
L 175.653962 235.272823 
L 175.958936 235.893228 
L 176.568883 235.564746 
L 176.873857 234.483377 
L 177.17883 236.242843 
L 177.483804 235.314195 
L 177.788778 235.720541 
L 178.093751 234.282169 
L 178.398725 235.759548 
L 178.703698 235.947045 
L 179.008672 234.682937 
L 179.313645 234.265431 
L 179.618619 235.330092 
L 179.923593 234.630595 
L 180.228566 235.964441 
L 180.53354 236.510733 
L 180.838513 235.892789 
L 181.143487 236.202853 
L 181.448461 235.275859 
L 181.753434 235.031486 
L 182.058408 235.960672 
L 182.668355 234.687343 
L 182.973328 235.201581 
L 183.278302 234.615028 
L 183.583276 235.667139 
L 184.193223 235.133503 
L 184.80317 236.067942 
L 185.108144 234.679378 
L 186.023064 236.383826 
L 186.633011 235.402571 
L 186.937985 235.753369 
L 187.242959 234.632715 
L 187.547932 234.460481 
L 187.852906 234.880075 
L 188.157879 236.121702 
L 188.462853 235.798032 
L 188.767827 236.538698 
L 189.0728 235.372863 
L 189.377774 235.395947 
L 189.682747 235.733558 
L 190.597668 235.405953 
L 190.902642 235.488705 
L 191.512589 234.984043 
L 191.817562 235.073672 
L 192.122536 234.441658 
L 192.42751 235.547883 
L 192.732483 235.355977 
L 193.037457 234.928173 
L 193.34243 236.18018 
L 193.647404 236.041208 
L 193.952377 235.591881 
L 194.257351 236.341746 
L 194.562325 235.223505 
L 194.867298 235.707436 
L 195.172272 235.8569 
L 195.477245 235.78776 
L 195.782219 235.04782 
L 196.087193 236.140185 
L 196.392166 236.111145 
L 196.69714 235.542947 
L 197.002113 236.044248 
L 197.307087 235.558336 
L 197.61206 234.426718 
L 197.917034 235.607696 
L 198.222008 235.21781 
L 198.526981 235.426459 
L 198.831955 235.244808 
L 199.136928 235.217506 
L 199.441902 235.695352 
L 199.746876 236.908367 
L 200.051849 235.646803 
L 200.356823 236.486831 
L 200.661796 235.143631 
L 200.96677 235.931367 
L 201.271743 235.881417 
L 201.576717 235.557175 
L 201.881691 235.686022 
L 202.186664 234.941575 
L 202.491638 236.26632 
L 202.796611 234.968228 
L 203.101585 235.58568 
L 203.406559 234.445019 
L 203.711532 235.79078 
L 204.016506 235.396793 
L 204.321479 235.916464 
L 204.626453 235.394675 
L 205.2364 235.566123 
L 205.541374 236.094149 
L 205.846347 235.29745 
L 206.151321 235.536009 
L 206.456294 235.265386 
L 206.761268 235.205107 
L 207.371215 235.760895 
L 207.676189 235.576907 
L 207.981162 235.135568 
L 208.286136 235.826767 
L 208.591109 234.615068 
L 208.896083 235.842943 
L 209.50603 235.493002 
L 209.811004 236.459698 
L 210.115977 235.720625 
L 210.420951 235.632665 
L 210.725925 235.099673 
L 211.030898 235.630907 
L 211.335872 234.967697 
L 211.640845 236.052935 
L 211.945819 235.929838 
L 212.250792 235.932649 
L 212.555766 235.683847 
L 212.86074 235.267257 
L 213.165713 235.121263 
L 213.470687 235.896141 
L 213.77566 235.991655 
L 214.080634 235.734201 
L 214.385608 236.567068 
L 214.690581 235.418842 
L 214.995555 235.584438 
L 215.300528 236.004966 
L 215.605502 235.348299 
L 215.910475 235.508001 
L 216.520423 235.010473 
L 216.825396 235.459479 
L 217.740317 235.592662 
L 218.045291 235.97381 
L 218.350264 234.919455 
L 218.655238 235.652233 
L 218.960211 234.837614 
L 219.265185 235.343276 
L 219.875132 235.98975 
L 220.180106 235.083324 
L 220.485079 235.147555 
L 220.790053 235.380822 
L 221.095026 235.194931 
L 221.4 235.666648 
L 221.704974 235.521004 
L 222.009947 236.356412 
L 222.314921 235.327821 
L 223.229842 235.13421 
L 223.839789 235.913453 
L 224.144762 235.148197 
L 224.449736 235.729207 
L 224.754709 234.963616 
L 225.364657 235.599761 
L 225.66963 235.301758 
L 225.974604 236.157606 
L 226.279577 235.591761 
L 226.889525 235.116172 
L 227.194498 235.47655 
L 227.499472 235.424208 
L 227.804445 235.607661 
L 228.109419 235.933962 
L 228.414392 235.988088 
L 228.719366 235.039961 
L 229.02434 235.348609 
L 229.93926 235.528107 
L 230.244234 235.199699 
L 230.549208 235.405364 
L 230.854181 235.766152 
L 231.464128 234.787204 
L 232.074075 236.233321 
L 232.379049 236.295837 
L 232.684023 234.708278 
L 233.29397 235.858202 
L 233.903917 235.715056 
L 234.208891 235.757677 
L 234.818838 235.154957 
L 235.123811 235.420451 
L 235.428785 235.485399 
L 235.733758 234.932157 
L 236.038732 235.772717 
L 236.343706 235.885372 
L 236.648679 235.395463 
L 236.953653 235.711106 
L 237.258626 235.795463 
L 237.5636 236.21029 
L 237.868574 235.379326 
L 238.173547 235.407919 
L 238.478521 235.148545 
L 238.783494 235.701303 
L 239.088468 235.640985 
L 239.393441 235.999765 
L 239.698415 235.051475 
L 240.003389 235.519524 
L 240.308362 235.302834 
L 240.613336 235.541753 
L 240.918309 235.592648 
L 241.223283 235.881358 
L 241.528257 234.931572 
L 241.83323 235.501793 
L 242.138204 235.738338 
L 242.443177 235.170591 
L 242.748151 236.075259 
L 243.053124 234.938248 
L 243.358098 235.604184 
L 243.663072 234.967828 
L 243.968045 235.899492 
L 244.273019 235.524995 
L 244.577992 235.448156 
L 245.18794 234.735761 
L 245.797887 235.526815 
L 246.407834 235.093432 
L 246.712807 235.619985 
L 247.017781 235.825798 
L 247.322755 236.236752 
L 247.627728 234.875103 
L 247.932702 235.114516 
L 248.237675 235.194238 
L 248.542649 235.893596 
L 248.847623 235.495586 
L 249.152596 235.499005 
L 249.762543 235.196401 
L 250.067517 235.73355 
L 250.37249 235.117047 
L 250.677464 235.8537 
L 251.287411 236.105343 
L 251.592385 235.645166 
L 251.897358 235.50268 
L 252.202332 235.674707 
L 252.507306 235.318936 
L 252.812279 235.536751 
L 253.117253 235.51507 
L 253.422226 235.832959 
L 253.7272 235.84476 
L 254.032173 234.713531 
L 254.337147 235.665523 
L 254.642121 235.132072 
L 254.947094 235.38609 
L 255.252068 235.109794 
L 255.557041 235.018542 
L 255.862015 235.690836 
L 256.166989 235.703745 
L 256.471962 235.280547 
L 256.776936 235.186179 
L 257.081909 235.662067 
L 257.386883 235.750844 
L 257.691856 235.127762 
L 257.99683 235.66374 
L 258.301804 235.273817 
L 258.606777 235.917012 
L 258.911751 235.942903 
L 259.216724 235.409489 
L 259.521698 235.698617 
L 259.826672 235.112142 
L 260.131645 235.518581 
L 260.436619 235.523792 
L 260.741592 235.912979 
L 261.046566 235.442263 
L 261.351539 235.570071 
L 261.656513 235.024344 
L 261.961487 235.178878 
L 262.26646 236.352436 
L 262.571434 236.216264 
L 262.876407 235.190006 
L 263.181381 235.497583 
L 263.486355 236.425038 
L 263.791328 235.676803 
L 264.096302 235.771254 
L 264.401275 235.212043 
L 264.706249 235.651225 
L 265.011222 235.253702 
L 265.316196 235.810547 
L 265.926143 235.462186 
L 266.231117 235.030287 
L 266.53609 236.029789 
L 266.841064 235.34599 
L 267.146038 236.057812 
L 267.451011 235.312371 
L 267.755985 235.965186 
L 268.060958 235.523895 
L 268.365932 235.523981 
L 268.670905 235.121642 
L 268.975879 235.261527 
L 269.280853 235.823751 
L 269.585826 235.107288 
L 269.8908 235.547957 
L 270.195773 235.395158 
L 270.500747 236.122609 
L 271.720641 235.320146 
L 272.025615 235.285359 
L 272.330588 235.637622 
L 272.635562 234.966283 
L 272.940536 235.766839 
L 273.245509 235.583976 
L 273.550483 236.023451 
L 273.855456 235.204804 
L 274.16043 235.754502 
L 274.465404 235.542255 
L 274.770377 235.58765 
L 275.075351 235.384002 
L 275.380324 235.378267 
L 275.685298 235.089075 
L 275.990271 235.888239 
L 276.295245 235.597019 
L 276.905192 235.700378 
L 277.210166 235.401949 
L 277.515139 235.342991 
L 277.820113 236.284123 
L 278.735034 235.105365 
L 279.344981 235.779206 
L 279.649954 235.283006 
L 279.954928 235.293674 
L 280.564875 235.814 
L 280.869849 235.242123 
L 281.174822 235.421953 
L 281.479796 235.744864 
L 281.78477 235.646058 
L 282.089743 235.871256 
L 282.394717 235.636062 
L 283.004664 235.767524 
L 283.614611 235.49495 
L 283.919585 235.579162 
L 284.224558 234.997164 
L 284.529532 235.441329 
L 284.834505 235.157747 
L 285.139479 235.707854 
L 285.444453 235.769279 
L 285.749426 235.545017 
L 287.579268 235.66459 
L 287.884241 235.842697 
L 288.189215 235.21791 
L 288.494188 235.410701 
L 288.799162 235.123554 
L 289.104136 235.731261 
L 289.409109 235.436444 
L 289.714083 235.50464 
L 290.019056 235.84144 
L 290.32403 235.799828 
L 290.629003 235.41503 
L 291.238951 235.536402 
L 291.848898 235.878212 
L 292.153871 235.458874 
L 292.458845 235.259039 
L 292.763819 235.734549 
L 293.068792 235.790741 
L 293.373766 235.159935 
L 293.678739 235.353734 
L 293.983713 235.882203 
L 294.288686 235.797777 
L 294.59366 235.535139 
L 294.898634 235.643914 
L 295.203607 235.289314 
L 295.508581 235.383592 
L 295.813554 235.759876 
L 296.118528 235.547037 
L 296.728475 235.708095 
L 297.948369 235.122398 
L 298.253343 235.152447 
L 298.558317 235.698262 
L 298.86329 235.482018 
L 299.168264 235.616989 
L 299.473237 235.291478 
L 299.778211 235.337564 
L 300.083185 235.562001 
L 300.388158 235.479865 
L 300.693132 235.549854 
L 300.998105 235.41567 
L 301.303079 235.466326 
L 301.608052 235.365493 
L 301.913026 235.138111 
L 302.522973 235.767294 
L 302.827947 235.450274 
L 303.13292 235.909583 
L 303.437894 235.516001 
L 303.742868 235.402893 
L 304.047841 235.160337 
L 304.657788 235.375459 
L 304.962762 235.72615 
L 305.267735 235.502625 
L 305.572709 235.848421 
L 305.877683 235.32358 
L 306.48763 236.310698 
L 306.792603 235.664295 
L 307.402551 235.661149 
L 307.707524 236.018761 
L 308.012498 235.998424 
L 308.317471 235.534305 
L 308.622445 235.529445 
L 308.927418 235.337012 
L 309.232392 235.74863 
L 309.537366 235.637641 
L 309.842339 235.044453 
L 310.147313 235.195261 
L 310.452286 235.831759 
L 311.977154 235.370991 
L 312.282128 235.666838 
L 312.587101 235.416229 
L 312.892075 235.621518 
L 313.197049 235.526889 
L 313.502022 235.734476 
L 313.806996 235.577617 
L 314.111969 235.795395 
L 314.416943 235.26522 
L 314.721917 235.360376 
L 315.02689 235.899828 
L 315.331864 235.633594 
L 315.636837 235.651104 
L 315.941811 235.359754 
L 316.246784 235.91135 
L 316.551758 235.274241 
L 316.856732 235.284768 
L 317.161705 235.638625 
L 317.771652 235.564534 
L 318.076626 235.736935 
L 318.3816 235.503851 
L 318.686573 235.689567 
L 319.29652 235.519375 
L 319.601494 235.707185 
L 319.906467 235.757752 
L 320.211441 235.441469 
L 320.516415 235.675173 
L 321.126362 235.845906 
L 321.431335 235.192781 
L 321.736309 235.350448 
L 322.041283 235.750021 
L 322.346256 235.341988 
L 322.65123 235.643588 
L 322.956203 235.448506 
L 323.56615 235.515062 
L 323.871124 235.476323 
L 324.176098 235.259258 
L 324.481071 235.445269 
L 324.786045 235.382596 
L 325.395992 235.706778 
L 326.005939 235.871741 
L 326.310913 235.148265 
L 326.615886 235.416586 
L 327.225833 235.536098 
L 327.530807 235.411993 
L 328.140754 235.797737 
L 328.445728 235.645856 
L 328.750701 235.759501 
L 329.055675 235.730027 
L 329.665622 235.375455 
L 329.970596 235.667739 
L 330.275569 235.67476 
L 330.580543 235.417715 
L 330.885516 235.724892 
L 331.19049 235.26884 
L 331.800437 235.755994 
L 332.105411 235.871751 
L 332.410384 235.469106 
L 332.715358 235.660709 
L 333.020332 235.478376 
L 333.325305 235.539569 
L 333.630279 235.405499 
L 333.935252 235.739676 
L 334.850173 235.444407 
L 335.155147 235.657356 
L 335.765094 235.387674 
L 336.070067 235.566393 
L 336.680015 235.43181 
L 336.984988 235.274925 
L 337.289962 235.369698 
L 337.594935 235.694965 
L 337.899909 235.553206 
L 338.204882 235.588814 
L 338.509856 235.330431 
L 338.81483 235.719859 
L 339.424777 235.530966 
L 339.72975 235.668792 
L 340.034724 235.464932 
L 340.339698 235.565236 
L 340.644671 235.495827 
L 341.254618 235.794704 
L 341.559592 235.422742 
L 342.474513 235.505281 
L 342.779486 235.771891 
L 343.08446 235.438906 
L 343.389433 235.647832 
L 345.219275 235.522281 
L 345.524248 235.548718 
L 345.829222 235.333748 
L 346.134196 235.326533 
L 346.439169 235.606051 
L 346.744143 235.390772 
L 347.049116 235.668768 
L 347.35409 235.442594 
L 347.659064 235.719352 
L 348.573984 235.491595 
L 348.878958 235.613743 
L 349.183931 235.435583 
L 349.488905 235.394706 
L 350.098852 235.664793 
L 350.403826 235.538488 
L 350.708799 235.631713 
L 351.013773 235.536877 
L 351.318747 235.579706 
L 351.62372 235.46158 
L 352.538641 235.628538 
L 353.453562 235.603927 
L 353.758535 235.390472 
L 354.063509 235.534375 
L 355.89335 235.591347 
L 356.198324 235.421473 
L 356.503298 235.609889 
L 356.808271 235.347514 
L 357.113245 235.683687 
L 357.418218 235.574103 
L 357.723192 235.605215 
L 358.028165 235.422938 
L 359.24806 235.688076 
L 359.858007 235.383733 
L 360.162981 235.631256 
L 361.382875 235.49796 
L 361.992822 235.570695 
L 362.297796 235.497932 
L 362.602769 235.616469 
L 363.212716 235.516228 
L 363.51769 235.667709 
L 363.822664 235.694603 
L 364.127637 235.495435 
L 364.432611 235.577983 
L 365.957479 235.487211 
L 367.78732 235.60068 
L 368.092294 235.472457 
L 368.397267 235.574627 
L 369.007214 235.525486 
L 369.312188 235.646607 
L 370.227109 235.517778 
L 371.14203 235.57555 
L 372.361924 235.540295 
L 372.666897 235.624915 
L 373.276845 235.5319 
L 373.581818 235.538642 
L 373.581818 235.538642 
" clip-path="url(#p8aa3551ce5)" style="fill: none; stroke: #ff7f0e; stroke-width: 1.5; stroke-linecap: square"/>
   </g>
   <g id="patch_3">
    <path d="M 54 252 
L 54 34.56 
" style="fill: none; stroke: #000000; stroke-width: 0.8; stroke-linejoin: miter; stroke-linecap: square"/>
   </g>
   <g id="patch_4">
    <path d="M 388.8 252 
L 388.8 34.56 
" style="fill: none; stroke: #000000; stroke-width: 0.8; stroke-linejoin: miter; stroke-linecap: square"/>
   </g>
   <g id="patch_5">
    <path d="M 54 252 
L 388.8 252 
" style="fill: none; stroke: #000000; stroke-width: 0.8; stroke-linejoin: miter; stroke-linecap: square"/>
   </g>
   <g id="patch_6">
    <path d="M 54 34.56 
L 388.8 34.56 
" style="fill: none; stroke: #000000; stroke-width: 0.8; stroke-linejoin: miter; stroke-linecap: square"/>
   </g>
   <g id="legend_1">
    <g id="patch_7">
     <path d="M 297.632812 71.91625 
L 381.8 71.91625 
Q 383.8 71.91625 383.8 69.91625 
L 383.8 41.56 
Q 383.8 39.56 381.8 39.56 
L 297.632812 39.56 
Q 295.632812 39.56 295.632812 41.56 
L 295.632812 69.91625 
Q 295.632812 71.91625 297.632812 71.91625 
z
" style="fill: #ffffff; opacity: 0.8; stroke: #cccccc; stroke-linejoin: miter"/>
    </g>
    <g id="line2d_18">
     <path d="M 299.632812 47.658437 
L 309.632812 47.658437 
L 319.632812 47.658437 
" style="fill: none; stroke: #1f77b4; stroke-width: 1.5; stroke-linecap: square"/>
    </g>
    <g id="text_18">
     <!-- No wall -->
     <g transform="translate(327.632812 51.158437)scale(0.1 -0.1)">
      <defs>
       <path id="DejaVuSans-77" d="M 269 3500 
L 844 3500 
L 1563 769 
L 2278 3500 
L 2956 3500 
L 3675 769 
L 4391 3500 
L 4966 3500 
L 4050 0 
L 3372 0 
L 2619 2869 
L 1863 0 
L 1184 0 
L 269 3500 
z
" transform="scale(0.015625)"/>
      </defs>
      <use xlink:href="#DejaVuSans-4e"/>
      <use xlink:href="#DejaVuSans-6f" x="74.804688"/>
      <use xlink:href="#DejaVuSans-20" x="135.986328"/>
      <use xlink:href="#DejaVuSans-77" x="167.773438"/>
      <use xlink:href="#DejaVuSans-61" x="249.560547"/>
      <use xlink:href="#DejaVuSans-6c" x="310.839844"/>
      <use xlink:href="#DejaVuSans-6c" x="338.623047"/>
     </g>
    </g>
    <g id="line2d_19">
     <path d="M 299.632812 62.336562 
L 309.632812 62.336562 
L 319.632812 62.336562 
" style="fill: none; stroke: #ff7f0e; stroke-width: 1.5; stroke-linecap: square"/>
    </g>
    <g id="text_19">
     <!-- $2.1B wall -->
     <g transform="translate(327.632812 65.836562)scale(0.1 -0.1)">
      <defs>
       <path id="DejaVuSans-2e" d="M 684 794 
L 1344 794 
L 1344 0 
L 684 0 
L 684 794 
z
" transform="scale(0.015625)"/>
       <path id="DejaVuSans-42" d="M 1259 2228 
L 1259 519 
L 2272 519 
Q 2781 519 3026 730 
Q 3272 941 3272 1375 
Q 3272 1813 3026 2020 
Q 2781 2228 2272 2228 
L 1259 2228 
z
M 1259 4147 
L 1259 2741 
L 2194 2741 
Q 2656 2741 2882 2914 
Q 3109 3088 3109 3444 
Q 3109 3797 2882 3972 
Q 2656 4147 2194 4147 
L 1259 4147 
z
M 628 4666 
L 2241 4666 
Q 2963 4666 3353 4366 
Q 3744 4066 3744 3513 
Q 3744 3084 3544 2831 
Q 3344 2578 2956 2516 
Q 3422 2416 3680 2098 
Q 3938 1781 3938 1306 
Q 3938 681 3513 340 
Q 3088 0 2303 0 
L 628 0 
L 628 4666 
z
" transform="scale(0.015625)"/>
      </defs>
      <use xlink:href="#DejaVuSans-24"/>
      <use xlink:href="#DejaVuSans-32" x="63.623047"/>
      <use xlink:href="#DejaVuSans-2e" x="127.246094"/>
      <use xlink:href="#DejaVuSans-31" x="159.033203"/>
      <use xlink:href="#DejaVuSans-42" x="222.65625"/>
      <use xlink:href="#DejaVuSans-20" x="291.259766"/>
      <use xlink:href="#DejaVuSans-77" x="323.046875"/>
      <use xlink:href="#DejaVuSans-61" x="404.833984"/>
      <use xlink:href="#DejaVuSans-6c" x="466.113281"/>
      <use xlink:href="#DejaVuSans-6c" x="493.896484"/>
     </g>
    </g>
   </g>
  </g>
 </g>
 <defs>
  <clipPath id="p8aa3551ce5">
   <rect x="54" y="34.56" width="334.8" height="217.44"/>
  </clipPath>
 </defs>
</svg>
